# xmcd
#
# Track frame offsets: 
#        150
#        14009
#        27777
#        42000
#        55605
#        66382
#        83162
#        96686
#        107448
#        119459
#        131849
#        145806
#
# Disc length: 2234 seconds
#
# Revision: 0
# Processed by: cddbd v1.5.2PL0 Copyright (c) Steve Scherf et al.
# Submitted via: ExactAudioCopyFreeDBPlugin 1.0
#
DISCID=a608b80c
DTITLE=Sly and The Family Stone - Greatest Hits
DYEAR=2015
DGENRE=R&B
TTITLE0=I Want To Take You Higher
TTITLE1=Everybody Is A Star
TTITLE2=Stand
TTITLE3=Life
TTITLE4=Fun
TTITLE5=You Can Make It If You Try
TTITLE6=Dance To The Music
TTITLE7=Everyday People
TTITLE8=Hot Fun In The Summertime
TTITLE9=M'Lady
TTITLE10=Sing A Simple Song
TTITLE11=Thank You (Falettinme Be Mice Elf Agin)
EXTD=
EXTT0=
EXTT1=
EXTT2=
EXTT3=
EXTT4=
EXTT5=
EXTT6=
EXTT7=
EXTT8=
EXTT9=
EXTT10=
EXTT11=
PLAYORDER=
